# xmcd
# 
# Track frame offsets:
#     150
#     16405
#     46372
#     61495
# 
# Disc length: 1168
# 
# Revision: 0
# Processed by: cddbd v1.5.2PL0 Copyright (c) Steve Scherf et al.
# Submitted via: fre:ac v1.0.17
# 
DISCID=2e048e04
DTITLE=Les Rythmes Digitales - Sometimes
DYEAR=1999
DGENRE=
TTITLE0=Sometimes (Feat Nik Kershaw) (Edit)
TTITLE1=MDC Vendredi
TTITLE2=Sometimes (Feat Nik Kershaw) (Zoot Woman Mix)
TTITLE3=Sometimes (Feat Nik Kershaw) (LRD Remix)
EXTD=
EXTT0=
EXTT1=
EXTT2=
EXTT3=
PLAYORDER=
